<?xml version="1.0" encoding="utf-8"?>
<!-- Generator: Adobe Illustrator 25.4.1, SVG Export Plug-In . SVG Version: 6.00 Build 0)  -->
<svg version="1.1" id="Layer_1" xmlns="http://www.w3.org/2000/svg" xmlns:xlink="http://www.w3.org/1999/xlink" x="0px" y="0px"
	 viewBox="0 0 236.16 67.31" style="enable-background:new 0 0 236.16 67.31;" xml:space="preserve">
<style type="text/css">
	.st0{fill:#FC8403;}
	.st1{fill:#EEEFEF;}
	.st2{fill:#FFFFFF;}
	.st3{fill:url(#SVGID_1_);}
	.st4{fill:url(#SVGID_00000147908865120751332470000005132505005817716355_);}
	.st5{fill:#4C205B;}
	.st6{fill:#813488;}
</style>
<g>
	<g>
		<g>
			<path class="st0" d="M83.67,50.68v4.31h6.96v3.76h-6.96v4.57h7.84v3.99H78.69V46.72h12.82v3.96H83.67z"/>
			<path class="st0" d="M106.84,67.31l-4.34-6.41l-3.73,6.41h-5.71l6.58-10.6l-6.79-9.99h5.91l4.22,6.2l3.64-6.2h5.68l-6.5,10.37
				l6.93,10.22H106.84z"/>
			<path class="st0" d="M127.43,63.55h-7.72l-1.28,3.76h-5.24l7.55-20.45h5.74l7.55,20.45h-5.3L127.43,63.55z M126.15,59.77
				l-2.56-7.57L121,59.77H126.15z"/>
			<path class="st0" d="M159.1,46.86v20.45h-4.98V54.52l-4.43,12.79h-4.31l-4.46-12.81v12.81h-4.98V46.86h6.09l5.56,14.24
				l5.45-14.24H159.1z"/>
			<path class="st0" d="M173.35,60.09v7.22h-4.98V46.72h8.07c2.45,0,4.31,0.61,5.59,1.82c1.28,1.21,1.92,2.85,1.92,4.91
				c0,1.28-0.29,2.42-0.86,3.42c-0.57,1-1.42,1.79-2.55,2.36c-1.13,0.57-2.5,0.86-4.11,0.86H173.35z M178.88,53.45
				c0-1.81-1-2.71-3-2.71h-2.53v5.36h2.53C177.88,56.1,178.88,55.21,178.88,53.45z"/>
			<path class="st0" d="M196.98,67.31l-4.46-7.78h-1.14v7.78h-4.98V46.72h8.51c1.63,0,3.01,0.28,4.14,0.84
				c1.13,0.56,1.97,1.34,2.53,2.32c0.56,0.98,0.85,2.1,0.85,3.36c0,1.5-0.41,2.77-1.24,3.82c-0.83,1.05-2.02,1.77-3.6,2.16l4.89,8.1
				H196.98z M191.38,56.13h3.09c0.99,0,1.72-0.22,2.18-0.66c0.47-0.44,0.7-1.08,0.7-1.94c0-0.82-0.24-1.46-0.71-1.92
				c-0.48-0.47-1.2-0.7-2.17-0.7h-3.09V56.13z"/>
			<path class="st0" d="M209.91,50.68v4.31h6.96v3.76h-6.96v4.57h7.84v3.99h-12.82V46.72h12.82v3.96H209.91z"/>
			<path class="st0" d="M225.55,60.09v7.22h-4.98V46.72h8.07c2.45,0,4.31,0.61,5.59,1.82c1.28,1.21,1.92,2.85,1.92,4.91
				c0,1.28-0.29,2.42-0.86,3.42c-0.57,1-1.42,1.79-2.55,2.36c-1.13,0.57-2.5,0.86-4.11,0.86H225.55z M231.09,53.45
				c0-1.81-1-2.71-3-2.71h-2.53v5.36h2.53C230.09,56.1,231.09,55.21,231.09,53.45z"/>
		</g>
	</g>
	<g id="Byju_x27_s_00000053509275975880116360000005549272710587124366_">
		<path class="st1" d="M181.72,38.68c-8.8,0-13.9-5.3-13.9-15.85V4.98c0-2.6,1.45-4.15,3.6-4.15c2.1,0,3.6,1.55,3.6,4.15v17.3
			c0,7.1,2.3,9.35,6.7,9.35c4.4,0,6.7-2.25,6.7-9.35V4.98c0-2.6,1.5-4.15,3.6-4.15c2.15,0,3.6,1.55,3.6,4.15v17.85
			C195.62,33.38,190.52,38.68,181.72,38.68 M100.91,18.68c3-1.95,4.55-4.65,4.55-7.8c0-6.2-4.35-10.6-13.15-10.6h-10
			c-2.15,0-3.6,1.4-3.6,3.55v31.5c0,2.1,1.45,3.55,3.6,3.55l9.95,0.1c11.4,0.1,15.15-4.8,15.15-10.8c0-4.3-2.45-7.7-6.5-9.35
			c0,0-0.05-0.02-0.05-0.07C100.87,18.7,100.91,18.68,100.91,18.68 M124.87,16.38l-8.05-13.4c-0.8-1.3-1.65-2.15-3.2-2.15
			c-2.05,0-3.65,1.4-3.65,3.25c0,1.15,0.35,2,0.95,2.95l10.35,16.6v11.1c0,2.6,1.65,4.15,3.55,4.15c2.15,0,3.65-1.55,3.65-4.15
			v-11.1l10.35-16.6c0.6-0.95,0.95-1.8,0.95-2.95c0-1.85-1.6-3.25-3.65-3.25c-1.55,0-2.4,0.85-3.2,2.15L124.87,16.38z M203.43,14.08
			c0.85,0,1.9-0.45,2.5-1.75c0.95-2.05,1.9-5.95,1.9-7.7c0-2.4-1.1-3.9-3.7-3.9c-2.65,0.1-3.75,1.8-3.75,4.95v2.85
			C200.38,12.08,201.38,14.08,203.43,14.08 M136.57,28.78c0,3.45,3.05,9.95,11.45,9.95c8.3,0,12.5-4.95,12.5-13.85V4.98
			c0-2.6-1.5-4.15-3.6-4.15c-2.25,0-3.6,1.55-3.6,4.15v20.05c0,4.55-1.55,6.7-5.1,6.75c-6.05,0.1-3.45-6.3-7.75-6.65
			C138.57,24.98,136.57,26.23,136.57,28.78 M94.66,15.33c-2.35,0.45-3.85,1.4-3.85,3.65c0,2.3,1.45,3.55,3.8,3.85
			c4.05,0.45,5.45,1.85,5.45,4.95c0,2.85-2.35,4.4-6.85,4.4h-7.35V6.88h7.95c3,0,4.5,1.8,4.5,4.5
			C98.31,13.73,96.91,14.93,94.66,15.33 M216.83,29.13c-0.9-1.05-2.05-2.1-3.35-2.1c-1.6,0-3.4,1-3.4,3.55
			c0,0.95,0.45,2.15,1.35,3.2c2.45,3,6.5,5.45,12.2,5.45c6.75,0,12.4-3.8,12.4-10.6c0-13.25-17.6-11.95-17.6-17.85
			c0-2.3,1.55-3.6,4.15-3.6c2,0,3.6,0.5,4.75,1.45c1.3,1,2.3,2.95,4.45,2.95c1.8,0,3.4-1.2,3.4-3c0-2.6-2.6-5.05-4.85-6.35
			c-1.9-1.1-4.4-1.95-7.8-1.95c-5.7,0.1-11.3,3.2-11.3,10.6c0,11.95,17.6,9.85,17.6,17.35c0,2.7-2.1,4.05-5.25,4.05
			C220.78,32.28,218.78,31.03,216.83,29.13"/>
		<path class="st2" d="M171.42,1.5c2.1,0,3.6,1.55,3.6,4.15V4.98c0-2.6-1.5-4.15-3.6-4.15c-2.15,0-3.6,1.55-3.6,4.15v0.67
			C167.82,3.05,169.27,1.5,171.42,1.5"/>
		<path class="st2" d="M175.02,22.95c0,7.1,2.3,9.35,6.7,9.35c4.4,0,6.7-2.25,6.7-9.35v-0.67c0,7.1-2.3,9.35-6.7,9.35
			c-4.4,0-6.7-2.25-6.7-9.35V22.95z"/>
		<path class="st2" d="M218.45,11.07c-0.01,0.12-0.02,0.25-0.02,0.38c0,5.84,17.26,4.63,17.59,17.48c0-0.1,0.01-0.2,0.01-0.3
			C236.03,15.6,219.03,16.64,218.45,11.07"/>
		<path class="st2" d="M113.62,1.5c1.55,0,2.4,0.85,3.2,2.15l8.05,13.4l8.05-13.4c0.8-1.3,1.65-2.15,3.2-2.15
			c1.94,0,3.48,1.26,3.63,2.97c0.01-0.13,0.02-0.26,0.02-0.39c0-1.85-1.6-3.25-3.65-3.25c-1.55,0-2.4,0.85-3.2,2.15l-8.05,13.4
			l-8.05-13.4c-0.8-1.3-1.65-2.15-3.2-2.15c-2.05,0-3.65,1.4-3.65,3.25c0,0.13,0.01,0.26,0.02,0.39
			C110.14,2.76,111.68,1.5,113.62,1.5"/>
		<path class="st2" d="M213.48,27.7c1.3,0,2.45,1.05,3.35,2.1c1.95,1.9,3.95,3.15,6.75,3.15c3.15,0,5.25-1.35,5.25-4.05
			c0-0.12-0.01-0.25-0.02-0.37c-0.16,2.49-2.21,3.74-5.23,3.74c-2.8,0-4.8-1.25-6.75-3.15c-0.9-1.05-2.05-2.1-3.35-2.1
			c-1.6,0-3.4,1-3.4,3.55c0,0.1,0.01,0.19,0.02,0.29C210.27,28.6,211.97,27.7,213.48,27.7"/>
		<path class="st2" d="M222.53,0.95c3.4,0,5.9,0.85,7.8,1.95c2.15,1.24,4.62,3.54,4.83,6.02c0.01-0.11,0.02-0.22,0.02-0.34
			c0-2.6-2.6-5.05-4.85-6.35c-1.9-1.1-4.4-1.95-7.8-1.95c-5.7,0.1-11.3,3.2-11.3,10.6c0,0.12,0,0.23,0.01,0.34
			C211.41,4.06,216.92,1.05,222.53,0.95"/>
		<path class="st2" d="M136.57,28.78c0,0.13,0.01,0.26,0.01,0.39c0.14-2.36,2.06-3.52,3.89-3.37c4.3,0.35,1.7,6.75,7.75,6.65
			c3.55-0.05,5.1-2.2,5.1-6.75v-0.67c0,4.55-1.55,6.7-5.1,6.75c-6.05,0.1-3.45-6.3-7.75-6.65
			C138.57,24.98,136.57,26.23,136.57,28.78"/>
		<path class="st2" d="M192.02,0.83c-2.1,0-3.6,1.55-3.6,4.15v0.67c0-2.6,1.5-4.15,3.6-4.15c2.15,0,3.6,1.55,3.6,4.15V4.98
			C195.62,2.38,194.17,0.83,192.02,0.83"/>
		<path class="st2" d="M204.13,0.73c-2.65,0.1-3.75,1.8-3.75,4.95v0.67c0-3.15,1.1-4.85,3.75-4.95c2.47,0,3.59,1.36,3.69,3.56
			c0.01-0.12,0.01-0.23,0.01-0.33C207.83,2.23,206.73,0.73,204.13,0.73"/>
		<path class="st2" d="M156.92,0.83c-2.25,0-3.6,1.55-3.6,4.15v0.67c0-2.6,1.35-4.15,3.6-4.15c2.1,0,3.6,1.55,3.6,4.15V4.98
			C160.52,2.38,159.02,0.83,156.92,0.83"/>
		<path class="st2" d="M82.31,0.95h10c8.61,0,12.96,4.22,13.14,10.21c0-0.09,0.01-0.19,0.01-0.28c0-6.2-4.35-10.6-13.15-10.6h-10
			c-2.15,0-3.6,1.4-3.6,3.55V4.5C78.71,2.35,80.16,0.95,82.31,0.95"/>
		<path class="st2" d="M94.66,15.33c-2.35,0.45-3.85,1.4-3.85,3.65c0,0.12,0.01,0.23,0.01,0.35c0.14-2.02,1.6-2.9,3.84-3.32
			c2.25-0.4,3.65-1.6,3.65-3.95c0-0.12-0.01-0.23-0.01-0.35C98.17,13.84,96.8,14.95,94.66,15.33"/>
		<path class="st2" d="M93.21,32.85c4.5,0,6.85-1.55,6.85-4.4c0-0.15-0.01-0.29-0.01-0.43c-0.13,2.69-2.47,4.16-6.84,4.16h-7.35
			v0.67H93.21z"/>
		<path class="st2" d="M100.91,18.83c0,0-0.05-0.02-0.05-0.07c0-0.06,0.05-0.08,0.05-0.08c0,0,0.01,0,0.01-0.01
			c-0.09,0.07-0.26,0.2-0.4,0.31c-0.13,0.1-0.1,0.3,0.04,0.36l0.35,0.15c3.97,1.62,6.4,4.92,6.49,9.11c0-0.14,0.01-0.29,0.01-0.43
			c0-1.1-0.18-2.18-0.5-3.21C106,22.2,103.89,20.04,100.91,18.83"/>
	</g>
	<g>
		<path class="st1" d="M6.52,67.26c-3.6,0-6.52-2.92-6.52-6.52V6.52C0,2.92,2.92,0,6.52,0h54.22c3.6,0,6.52,2.92,6.52,6.52v54.22
			c0,3.6-2.92,6.52-6.52,6.52H6.52z"/>
		
			<radialGradient id="SVGID_1_" cx="-107.9176" cy="1318.7346" r="41.4409" gradientTransform="matrix(-1.028679e-13 -1 1.2833 -1.320053e-13 -1658.9054 -18.1421)" gradientUnits="userSpaceOnUse">
			<stop  offset="0.8208" style="stop-color:#D9DBDC"/>
			<stop  offset="0.8903" style="stop-color:#EEEFEF"/>
		</radialGradient>
		<path class="st3" d="M6.52,67.26c-3.6,0-6.52-2.92-6.52-6.52V38.68c0-2.15,1.74-3.89,3.89-3.89h59.47c2.15,0,3.89,1.74,3.89,3.89
			v22.05c0,3.6-2.92,6.52-6.52,6.52H6.52z"/>
		
			<radialGradient id="SVGID_00000032627546113034429050000003437670086568780700_" cx="10405.543" cy="-1584.3512" r="41.4409" gradientTransform="matrix(1.028679e-13 1 -1.2833 1.320053e-13 -1999.2234 -10428.0615)" gradientUnits="userSpaceOnUse">
			<stop  offset="0.8208" style="stop-color:#F3F4F4"/>
			<stop  offset="0.8903" style="stop-color:#EEEFEF"/>
		</radialGradient>
		<path style="fill:url(#SVGID_00000032627546113034429050000003437670086568780700_);" d="M60.74,0c3.6,0,6.52,2.92,6.52,6.52
			v22.05c0,2.15-1.74,3.89-3.89,3.89H3.89C1.74,32.47,0,30.73,0,28.58V6.52C0,2.92,2.92,0,6.52,0H60.74z"/>
		<path class="st1" d="M6.39,65.1c-2.34,0-4.24-1.9-4.24-4.24V6.39c0-2.34,1.9-4.24,4.24-4.24h54.47c2.34,0,4.24,1.9,4.24,4.24
			v54.47c0,2.34-1.9,4.24-4.24,4.24H6.39z"/>
		<path class="st5" d="M43.56,50.97L43.56,50.97L30.5,54.74c-1.11,0.32-2.27-0.32-2.59-1.43l-9.89-34.25
			c-0.32-1.11,0.32-2.27,1.43-2.59l13.52-3.9c3.12-0.9,6.52,0,8.68,2.43c4.01,4.51,3.06,10.36-0.6,13.51
			c4.72,0.28,8.96,3.47,10.35,8.27C53.15,42.86,49.65,49.21,43.56,50.97z"/>
		<path class="st6" d="M45.46,26.93c2-3.85,1.88-8.82-1.41-13.01c-2.53-3.22-7.89-4.88-11.82-3.75l-13.89,4.01
			c-2.22,0.64-3.49,2.95-2.85,5.17l10.13,35.09c0.64,2.22,2.95,3.49,5.17,2.85l13.97-4.03c4.67-1.35,9.03-6.39,9.56-11.23
			C55.09,34.75,51.01,29.09,45.46,26.93z M43.56,50.97L43.56,50.97l-13.07,3.77c-1.11,0.32-2.26-0.32-2.58-1.43l-9.89-34.26
			c-0.32-1.11,0.32-2.26,1.43-2.58L33,12.57c3.11-0.9,6.49,0.01,8.64,2.42c4.03,4.51,3.08,10.38-0.59,13.53
			c4.72,0.28,8.96,3.47,10.35,8.27C53.15,42.86,49.65,49.21,43.56,50.97z"/>
		<path class="st6" d="M47.64,41.84c0-5.8-4.67-10.51-10.46-10.57c3.51-3.02,4.44-8.6,0.68-12.95c-2.1-2.42-5.44-3.36-8.52-2.48
			l-11.31,3.26l9.87,34.2c0.32,1.11,1.48,1.75,2.58,1.43l9.28-2.68c0.04-0.01,0.09-0.03,0.13-0.04
			C44.36,50.78,47.64,46.69,47.64,41.84z"/>
	</g>
</g>
</svg>
